<?xml version="1.0" encoding="UTF-8"?>
<!DOCTYPE svg PUBLIC "-//W3C//DTD SVG 1.1//EN" "http://www.w3.org/Graphics/SVG/1.1/DTD/svg11.dtd">
<!-- Creator: CorelDRAW X6 -->
<svg xmlns="http://www.w3.org/2000/svg" xml:space="preserve" width="0.5in" height="0.5in" version="1.1" style="shape-rendering:geometricPrecision; text-rendering:geometricPrecision; image-rendering:optimizeQuality; fill-rule:evenodd; clip-rule:evenodd"
viewBox="0 0 500 500"
 xmlns:xlink="http://www.w3.org/1999/xlink">
 <defs>
  <style type="text/css">
   <![CDATA[
    .fil0 {fill:#FEFEFE}
   ]]>
  </style>
 </defs>
 <g id="Layer_x0020_1">
  <metadata id="CorelCorpID_0Corel-Layer"/>
  <path class="fil0" d="M250 0c138,0 250,112 250,250 0,138 -112,250 -250,250 -138,0 -250,-112 -250,-250 0,-138 112,-250 250,-250zm-209 296l13 0 0 40 -13 0 0 -40zm133 15l0 -14 29 0c5,0 8,0 10,0l1 0c4,0 9,-1 16,-1 5,0 9,0 12,0 3,0 5,1 7,1 3,1 5,3 6,6 0,2 0,4 1,7l-12 0c0,-1 0,-2 0,-2 0,0 0,-1 -1,-1 -1,0 -2,-1 -4,-1 -2,0 -5,0 -9,0l-3 0c0,1 0,2 0,3 0,1 0,2 0,3l0 0c0,1 0,2 0,4 0,4 0,6 0,8 0,1 0,2 -1,4l3 0c6,0 9,0 10,0 1,0 2,0 3,-1 1,0 1,-1 1,-1 0,-1 0,-1 0,-3 0,0 0,-1 0,-1l-16 0 0 -8 28 0c0,1 0,1 0,1 0,6 0,10 0,13 0,5 -3,7 -8,8 -2,0 -4,1 -7,1 -3,0 -7,0 -12,0 -7,0 -12,0 -15,-1 -1,0 -1,0 -2,0 -2,0 -5,0 -9,0l-9 0 -20 0 0 0 0 -25 0 0zm29 -5l-17 0 0 20 17 0c0,-2 0,-5 0,-10 0,-4 0,-6 0,-8l0 -1zm214 30l0 -40 25 0c7,0 11,0 12,0 1,0 2,1 3,1 1,1 2,2 2,3 1,2 1,4 1,8 0,3 0,5 -1,6 0,2 -1,3 -2,4 -1,1 -2,2 -3,2 -1,0 -3,1 -5,1 -1,0 -3,0 -7,0l-20 0 0 15 -5 0zm5 -20l20 0c5,0 8,0 9,0 1,0 2,-1 3,-1 1,-1 1,-1 1,-2 0,-1 0,-2 0,-4 0,-2 0,-4 0,-4 0,-1 -1,-2 -1,-2 -1,-1 -2,-1 -3,-1 -1,0 -4,0 -9,0l-20 0 0 16zm-58 -20l5 0 0 20c0,6 0,9 0,10 0,2 1,3 1,3 1,1 2,1 4,1 3,0 7,1 12,1 7,0 12,0 15,-1 2,0 3,-1 3,-1 1,-1 1,-2 1,-4 0,-1 0,-5 0,-10l0 -20 5 0 0 20c0,5 0,9 0,11 0,3 -2,6 -4,7 -1,1 -3,1 -5,2 -2,0 -7,0 -14,1 -7,0 -11,0 -12,0 -1,0 -3,0 -4,-1 -3,-1 -5,-2 -6,-4 -1,-1 -1,-3 -1,-4 0,-2 0,-5 0,-11l0 -20zm-28 0c7,0 12,0 14,1 3,0 5,1 6,3 1,1 1,2 2,3 0,1 1,3 1,5 0,2 0,6 0,9 0,5 0,9 -1,11 0,3 -1,4 -2,6 -1,1 -3,2 -6,3 -3,0 -7,1 -13,1 -3,0 -6,0 -10,0 -4,0 -6,0 -7,0 -2,0 -4,-1 -5,-1 -1,0 -2,-1 -3,-2 -1,-1 -2,-3 -2,-5 0,-2 -1,-6 -1,-11 0,-6 0,-11 1,-13 1,-3 3,-5 7,-6 3,-1 9,-1 18,-1zm-3 5c-6,0 -10,0 -12,1 -2,0 -3,1 -3,1 -1,1 -1,2 -1,3 0,2 -1,5 -1,10 0,4 0,8 0,10 0,2 1,3 1,4 1,1 1,1 2,1 1,0 2,0 5,1 3,0 7,0 12,0 6,0 11,0 14,-1 2,0 4,-2 4,-4 0,-2 1,-6 1,-10 0,-5 0,-9 -1,-11 0,-2 -2,-3 -5,-4 -2,0 -3,0 -5,0 -2,0 -6,0 -11,0zm-73 35l0 -40 25 0c7,0 11,0 13,0 3,0 6,2 7,4 1,2 1,4 1,7 0,2 0,4 0,5 0,1 -1,2 -1,3 -1,1 -3,2 -5,2 2,0 3,1 4,2 1,1 1,2 1,3 0,1 0,3 0,7l0 6 -5 0 0 -4c0,-3 0,-5 0,-7 0,-3 -2,-4 -4,-4 -1,0 -2,0 -3,0 -1,0 -3,0 -8,0l-19 0 0 15 -5 0zm5 -20l19 0c5,0 8,0 10,0 1,0 3,-1 4,-1 1,-1 2,-3 2,-7 0,-3 -1,-5 -2,-6 -1,-1 -2,-1 -4,-1 -2,0 -5,0 -10,0l-19 0 0 15zm-51 -4c0,1 0,3 0,4 0,2 0,3 0,4 0,-1 0,-3 0,-4 0,-2 0,-3 0,-4zm-60 24l-3 -7 -26 0 -3 7 -14 0 21 -40 19 0 21 40 -14 0zm-8 -15l-8 -15 -2 0 -8 15 18 0zm-85 -24l48 0 0 10 -18 0 0 30 -13 0 0 -30 -18 0 0 -10zm155 -138c1,-6 6,-11 12,-12l17 0 0 -29 -17 0 -16 0c-14,0 -26,11 -26,25l0 16 29 0zm40 106l33 0c14,0 26,-11 26,-25l0 -96c0,-14 -11,-25 -26,-25l-33 0 0 29 15 0c8,0 14,6 14,14l0 61c0,8 -6,14 -14,14l-15 0 0 29zm-40 -44c1,-6 6,-11 12,-12l0 0 46 0 0 -29 -46 0 -12 0 0 -16 0 0 0 6 -29 0 0 36 0 16 0 18c0,14 11,25 26,25l33 0 0 -29 -15 0c-8,0 -14,-6 -14,-14l0 0 0 0z"/>
 </g>
</svg>
