<?xml version="1.0" encoding="utf-8"?>
<!-- Generator: Adobe Illustrator 16.0.0, SVG Export Plug-In . SVG Version: 6.00 Build 0)  -->
<!DOCTYPE svg PUBLIC "-//W3C//DTD SVG 1.1//EN" "http://www.w3.org/Graphics/SVG/1.1/DTD/svg11.dtd">
<svg version="1.1" id="logo" xmlns="http://www.w3.org/2000/svg" xmlns:xlink="http://www.w3.org/1999/xlink" x="0px" y="0px"
	 width="201px" height="215px" viewBox="0 0 201 215" enable-background="new 0 0 201 215" xml:space="preserve">
<path id="icon" fill="#3A3A3A" d="M68.75,0C30.781,0,0,30.779,0,68.75c0,21.677,10.036,41.008,25.712,53.609
	c6.208-4.403,9.035-13.688,9.208-14.012c0.265-0.497,0.744-1.908,0.837-2.095c0.093-0.187,0.223-0.726,0.232-0.978
	c0.008-0.233,0.01-0.72-0.094-0.93c-0.113-0.229-0.697-0.651-0.651-0.791c0.047-0.139-0.538-1.099-0.651-1.488
	c-0.186-0.64-0.168-1.99-0.233-2.653c-0.053-0.534-0.185-1.603-0.233-2.14c-0.043-0.5-0.098-1.501-0.139-2
	c-0.061-0.745-0.224-2.232-0.279-2.978c-0.066-0.871-0.187-3.351-0.139-3.49c0.046-0.14-0.131-1.703-0.327-2.233
	c-0.238-0.645-1.008-1.803-1.396-2.372c-0.404-0.595-1.361-1.684-1.768-2.278c-0.358-0.527-1-1.628-1.302-2.188
	c-0.291-0.534-0.838-1.625-1.07-2.187c-0.124-0.294-0.322-0.904-0.419-1.209c-0.139-0.438-0.372-1.329-0.513-1.768
	c-0.106-0.337-0.417-1.209-0.417-1.349c0-0.141-0.791-1.489-0.791-1.628c0-0.141-0.187-0.932-0.187-1.164
	c0-0.233-0.172-1.152-0.232-1.535c-0.098-0.612-0.326-2.326-0.28-2.466c0.047-0.139,0.24-1.162,0.14-1.535
	c-0.053-0.203-0.345-0.526-0.466-0.698c-0.28-0.402-1.008-1.116-1.162-1.582c-0.16-0.486-0.062-1.539,0-2.046
	c0.053-0.429,0.305-1.259,0.419-1.675c0.097-0.352,0.313-1.047,0.418-1.396c0.14-0.465,0.489-1.38,0.558-1.861
	c0.056-0.379-0.016-1.151,0-1.535c0.024-0.514,0.086-1.543,0.186-2.047c0.108-0.537,0.479-1.575,0.652-2.094
	c0.165-0.492,0.507-1.47,0.698-1.953c0.139-0.354,0.471-1.041,0.606-1.397c0.093-0.251,0.255-0.763,0.325-1.023
	c0.093-0.346,0.279-1.255,0.326-1.396c0.046-0.139-0.294-0.897-0.326-1.209c-0.05-0.466,0.087-1.414,0.233-1.86
	c0.155-0.48,0.754-1.315,0.977-1.769c0.194-0.397,0.533-1.216,0.697-1.628c0.161-0.403,0.445-1.225,0.604-1.627
	c0.243-0.611,0.745-1.826,1.024-2.419c0.3-0.641,0.91-1.925,1.302-2.513c0.472-0.708,1.605-1.984,2.187-2.605
	c0.294-0.312,1.071-1.023,1.303-1.116c0.233-0.093,1.756-0.864,2.373-1.07c0.462-0.154,1.423-0.359,1.907-0.419
	c0.404-0.05,1.229-0.122,1.629-0.046c0.261,0.05,0.717,0.478,0.977,0.419c0.482-0.11,0.978-1.117,1.303-1.489
	c0.315-0.361,0.883-1.145,1.256-1.442c0.289-0.23,0.959-0.562,1.303-0.698c0.549-0.216,1.692-0.56,2.28-0.604
	c0.536-0.041,1.601,0.238,2.14,0.232c0.622-0.007,1.854-0.22,2.466-0.326c0.492-0.085,1.461-0.341,1.954-0.418
	c0.565-0.089,1.71-0.162,2.28-0.232c0.314-0.04,0.938-0.163,1.256-0.187c0.464-0.034,1.396,0.009,1.861,0
	c0.326-0.006,0.98,0.009,1.302-0.046c0.193-0.033,0.552-0.204,0.744-0.233c0.38-0.058,1.153-0.034,1.536,0
	c0.388,0.035,1.146,0.245,1.536,0.279c0.347,0.031,1.047,0,1.395,0c0.431,0,1.294-0.055,1.723,0c0.275,0.036,0.796,0.244,1.07,0.279
	c0.392,0.05,1.187-0.03,1.58,0c0.447,0.035,1.321,0.244,1.768,0.279c0.395,0.031,1.19-0.043,1.582,0
	c0.399,0.044,1.442,0.325,1.583,0.278c0.141-0.045,0.762,0.233,1.023,0.28c0.273,0.049,0.836,0.002,1.117,0.002
	c0.291,0,0.875-0.039,1.162,0.002c0.265,0.039,0.767,0.239,1.023,0.308c0.313,0.083,0.944,0.233,1.256,0.312
	c0.223,0.056,0.664,0.189,0.886,0.251c0.233,0.066,0.694,0.259,0.931,0.317c0.286,0.071,0.863,0.311,1.162,0.309
	c0.284,0,0.833-0.047,1.116-0.081c0.196-0.023,0.596,0.283,0.792,0.303c0.364,0.036,1.076,1.05,1.441,1.084
	c0.279,0.027,0.837,1.413,1.118,1.413c0.279,0,0.837,0,1.115,0c0.466,0,1.413-1.536,1.858-1.413c0.276,0.075,0.749-0.896,0.98-0.729
	c0.324,0.233,0.858,0.801,1.208,0.996c0.267,0.15,0.878,0.241,1.163,0.348c0.332,0.124,0.969,0.429,1.304,0.545
	c0.34,0.118,1.071,0.208,1.396,0.367c0.209,0.102,0.547,0.433,0.743,0.555c0.2,0.123,0.61,0.362,0.836,0.417
	c0.183,0.043,0.567-0.046,0.746,0c0.336,0.088,0.933,0.468,1.21,0.675c0.234,0.174,0.67,0.573,0.837,0.814
	c0.183,0.261,0.338,0.896,0.511,1.162c0.123,0.187,0.473,0.475,0.607,0.652c0.146,0.196,0.314,0.69,0.511,0.838
	c0.173,0.131,0.65,0.12,0.837,0.232c0.275,0.165,0.59,0.804,0.885,0.931c0.149,0.064,0.531-0.109,0.65,0
	c0.08,0.069,0.041,0.314,0.049,0.417c0.012,0.245-0.121,0.766,0,0.978c0.066,0.118,0.362,0.188,0.465,0.28
	c0.146,0.135,0.391,0.464,0.465,0.651c0.096,0.24,0.131,0.765,0.141,1.024c0.007,0.197,0.053,0.62-0.049,0.791
	c-0.18,0.304-0.883,0.604-1.207,0.743c-0.387,0.165-1.213,0.367-1.631,0.419c-0.301,0.039-0.922-0.095-1.209,0
	c-0.33,0.111-0.812,0.671-1.116,0.838c-0.294,0.161-0.938,0.358-1.255,0.465c-0.23,0.077-0.871,0.043-0.931,0.279
	c-0.038,0.144,0.333,0.298,0.417,0.419c0.142,0.201,0.316,0.664,0.42,0.884c0.174,0.373,0.549,1.105,0.697,1.489
	c0.172,0.454,0.4,1.401,0.559,1.861c0.166,0.484,0.6,1.417,0.744,1.907c0.113,0.387,0.224,1.19,0.326,1.582
	c0.115,0.449,0.352,1.353,0.559,1.768c0.178,0.358,0.695,0.977,0.931,1.303c0.175,0.244,0.526,0.729,0.697,0.977
	c0.323,0.471,0.971,1.413,1.257,1.907c0.285,0.496,0.813,1.515,1.021,2.047c0.135,0.338,0.332,1.042,0.418,1.395
	c0.076,0.3,0.226,0.902,0.234,1.21c0.008,0.27-0.229,0.814-0.141,1.071c0.037,0.109,0.262,0.23,0.324,0.325
	c0.115,0.168,0.281,0.546,0.328,0.744c0.07,0.318,0.071,0.979,0.045,1.303c-0.028,0.344-0.131,1.039-0.278,1.35
	c-0.144,0.299-0.627,0.769-0.838,1.024c-0.185,0.222-0.628,0.619-0.743,0.883c-0.145,0.323-0.207,1.045-0.188,1.397
	c0.015,0.239,0.146,0.706,0.232,0.931c0.143,0.367,0.529,1.064,0.744,1.396c0.206,0.321,0.693,0.909,0.932,1.209
	c0.285,0.365,0.871,1.083,1.161,1.444c0.312,0.386,0.953,1.143,1.256,1.534c0.304,0.388,0.871,1.188,1.164,1.582
	c0.312,0.42,0.933,1.263,1.257,1.675c0.271,0.343,0.838,1.01,1.116,1.348c0.306,0.371,0.933,1.099,1.209,1.49
	c0.168,0.234,0.462,0.727,0.604,0.977c0.162,0.286,0.479,0.86,0.605,1.163c0.135,0.328,0.364,1,0.417,1.35
	c0.048,0.299,0.052,0.911,0,1.21c-0.045,0.278-0.233,0.821-0.37,1.07c-0.137,0.247-0.512,0.672-0.697,0.883
	c-0.252,0.282-0.766,0.85-1.07,1.07c-0.275,0.197-0.893,0.487-1.21,0.604c-0.271,0.101-0.836,0.211-1.116,0.281
	c-0.292,0.07-0.896,0.141-1.164,0.278c-0.219,0.114-0.586,0.46-0.744,0.651c-0.205,0.249-0.527,0.818-0.65,1.117
	c-0.125,0.302-0.258,0.94-0.327,1.255c-0.056,0.266-0.161,0.801-0.185,1.072c-0.027,0.323-0.031,0.977,0,1.301
	c0.022,0.236,0.102,0.708,0.185,0.931c0.06,0.151,0.302,0.399,0.327,0.557c0.035,0.223-0.09,0.68-0.187,0.885
	c-0.12,0.254-0.495,0.688-0.698,0.885c-0.195,0.189-0.639,0.526-0.883,0.651c-0.207,0.104-0.854,0.048-0.885,0.279
	c-0.025,0.191,0.498,0.299,0.648,0.418c0.152,0.116,0.428,0.376,0.562,0.512c0.185,0.188,0.588,0.552,0.697,0.79
	c0.138,0.3,0.218,0.976,0.186,1.303c-0.022,0.245-0.206,0.715-0.325,0.93c-0.136,0.247-0.494,0.69-0.697,0.886
	c-0.229,0.219-0.791,0.528-1.022,0.742c-0.353,0.324-1.003,1.038-1.256,1.442c-0.188,0.3-0.421,0.978-0.56,1.304
	c-0.107,0.255-0.395,0.747-0.418,1.024c-0.02,0.214,0.146,0.626,0.186,0.835c0.068,0.373,0.229,1.113,0.232,1.491
	c0.007,0.456-0.142,1.365-0.232,1.813c-0.104,0.498-0.334,1.498-0.559,1.953c-0.242,0.492-0.941,1.356-1.301,1.77
	c-0.269,0.303-0.845,0.873-1.166,1.115c-0.312,0.236-0.981,0.654-1.349,0.791c-0.41,0.152-1.307,0.186-1.722,0.324
	c-0.319,0.109-0.9,0.467-1.209,0.605c-0.4,0.182-1.223,0.484-1.628,0.652c-0.304,0.123-0.908,0.384-1.21,0.51
	c-0.558,0.234-1.671,0.709-2.233,0.934c-0.484,0.192-1.449,0.6-1.953,0.743c-0.934,0.267-2.859,0.562-3.813,0.747
	c-0.3,0.059-0.908,0.164-1.208,0.234c-0.491,0.111-3.145,1.266-3.519,1.55c-0.65,0.493-1.893,1.56-2.46,2.146
	c-0.548,0.568-3.987,4.852-3.183,8.737c0.184,0.894,0.656,1.822,1.227,2.733c33.084-4.971,58.453-33.514,58.453-67.982
	C137.501,30.779,106.721,0,68.75,0z"/>
<g>
	<path fill="#3A3A3A" d="M7.245,147.205v27.484h-1.46v-29.557c0-0.844,0.055-1.415,0.166-1.715c0.111-0.299,0.313-0.449,0.609-0.449
		c0.31,0,0.527,0.089,0.652,0.266c0.125,0.176,0.38,0.725,0.764,1.646l10.399,27.6l10.421-27.6c0.383-0.936,0.638-1.488,0.763-1.657
		c0.125-0.169,0.335-0.254,0.63-0.254c0.31,0,0.52,0.15,0.631,0.449c0.11,0.3,0.166,0.871,0.166,1.715v29.557h-1.46v-27.484
		l-9.802,25.758c-0.398,1.013-0.653,1.604-0.763,1.772c-0.111,0.169-0.307,0.253-0.586,0.253c-0.266,0-0.454-0.088-0.564-0.265
		c-0.11-0.176-0.365-0.763-0.763-1.761L7.245,147.205z"/>
	<path fill="#3A3A3A" d="M52.957,154.57v21.546c0,1.765-0.074,3.097-0.221,3.994c-0.147,0.897-0.436,1.761-0.863,2.59
		c-0.635,1.228-1.571,2.202-2.81,2.923c-1.121,0.66-2.353,0.99-3.695,0.99c-2.699,0-4.801-1.166-6.306-3.499
		c-0.472-0.706-0.8-1.373-0.984-2.003c-0.185-0.629-0.307-1.465-0.365-2.509h1.394c0.029,0.905,0.118,1.623,0.266,2.152
		c0.147,0.529,0.427,1.094,0.84,1.692c1.269,1.856,2.987,2.785,5.155,2.785c1.8,0,3.275-0.652,4.425-1.957
		c0.678-0.752,1.143-1.638,1.394-2.658c0.25-1.021,0.376-2.521,0.376-4.501v-3.981c-1.047,1.15-1.984,1.944-2.81,2.382
		s-1.8,0.656-2.92,0.656c-2.065,0-3.791-0.752-5.177-2.256c-1.077-1.197-1.704-2.701-1.881-4.512
		c-0.03-0.368-0.044-1.281-0.044-2.739V154.57h1.394v11.05c0,2.164,0.214,3.768,0.642,4.811c0.383,0.921,1.003,1.688,1.859,2.302
		c0.958,0.706,2.013,1.06,3.164,1.06c1.519,0,2.854-0.576,4.005-1.727c0.678-0.675,1.143-1.462,1.394-2.359
		c0.25-0.898,0.376-2.229,0.376-3.994V154.57H52.957z"/>
	<path fill="#3A3A3A" d="M72.693,160.211v14.479h-1.46v-29.073c0-1.013,0.11-1.657,0.332-1.934s0.752-0.414,1.593-0.414h2.412
		c1.519,0,2.751,0.149,3.695,0.449c0.944,0.299,1.851,0.816,2.722,1.554c1.917,1.657,2.876,3.806,2.876,6.445
		c0,2.209-0.671,4.104-2.014,5.686c-0.9,1.044-1.947,1.772-3.142,2.187s-2.862,0.622-5,0.622H72.693z M72.693,144.673v14.134h1.46
		c1.844,0,3.182-0.089,4.016-0.265c0.833-0.177,1.641-0.533,2.423-1.071c0.87-0.613,1.556-1.438,2.058-2.474
		c0.501-1.036,0.752-2.138,0.752-3.304c0-2.194-0.804-3.967-2.412-5.317c-1.342-1.136-3.164-1.703-5.465-1.703H72.693z"/>
	<path fill="#3A3A3A" d="M97.54,154.11c2.935,0,5.406,1.128,7.412,3.384c1.74,1.965,2.61,4.358,2.61,7.182
		c0,3.146-1.136,5.748-3.407,7.804c-1.902,1.719-4.16,2.578-6.771,2.578c-1.593,0-3.127-0.414-4.602-1.243
		c-1.711-0.951-3.031-2.294-3.96-4.028c-0.871-1.596-1.305-3.33-1.305-5.202c0-3.191,1.143-5.824,3.429-7.896
		C92.775,155.016,94.973,154.156,97.54,154.11z M97.54,155.491c-2.522,0-4.654,1.021-6.395,3.062c-1.46,1.719-2.19,3.729-2.19,6.031
		c0,2.686,0.952,4.935,2.854,6.745c1.637,1.564,3.503,2.348,5.598,2.348c2.625,0,4.801-1.021,6.527-3.062
		c1.46-1.719,2.19-3.706,2.19-5.962c0-2.701-0.952-4.973-2.854-6.813C101.692,156.32,99.782,155.537,97.54,155.491z"/>
	<path fill="#3A3A3A" d="M119.068,154.524v1.382c-2.007,0.062-3.419,0.609-4.237,1.646s-1.228,2.797-1.228,5.283v11.854h-1.395
		v-11.993C112.047,157.218,114.333,154.494,119.068,154.524z"/>
	<path fill="#3A3A3A" d="M123.095,154.57v-7.066h1.395v7.066h5.442v1.382h-5.442v10.45c0,2.472,0.409,4.225,1.228,5.26
		c0.819,1.036,2.224,1.585,4.215,1.646v1.381c-4.72,0.03-6.999-2.693-6.837-8.172v-10.565h-3.296v-1.382H123.095z"/>
	<path fill="#3A3A3A" d="M141.062,155.952h-5.487v18.737h-1.394v-18.737h-3.12v-1.382h3.12v-3.613
		c-0.045-5.003,2.249-7.565,6.881-7.688v1.335c-1.977,0.062-3.386,0.583-4.226,1.565c-0.841,0.982-1.262,2.609-1.262,4.88v3.521
		h5.487V155.952z"/>
	<path fill="#3A3A3A" d="M152.39,154.11c2.935,0,5.406,1.128,7.412,3.384c1.74,1.965,2.61,4.358,2.61,7.182
		c0,3.146-1.136,5.748-3.407,7.804c-1.902,1.719-4.159,2.578-6.771,2.578c-1.593,0-3.127-0.414-4.602-1.243
		c-1.712-0.951-3.031-2.294-3.961-4.028c-0.87-1.596-1.306-3.33-1.306-5.202c0-3.191,1.144-5.824,3.43-7.896
		C147.625,155.016,149.823,154.156,152.39,154.11z M152.39,155.491c-2.522,0-4.654,1.021-6.395,3.062
		c-1.46,1.719-2.19,3.729-2.19,6.031c0,2.686,0.951,4.935,2.854,6.745c1.637,1.564,3.503,2.348,5.598,2.348
		c2.625,0,4.801-1.021,6.527-3.062c1.46-1.719,2.19-3.706,2.19-5.962c0-2.701-0.952-4.973-2.854-6.813
		C156.542,156.32,154.632,155.537,152.39,155.491z"/>
	<path fill="#3A3A3A" d="M168.408,143.269v31.421h-1.394v-31.421H168.408z"/>
	<path fill="#3A3A3A" d="M175.423,147.205c0.339,0,0.611,0.111,0.818,0.333c0.206,0.223,0.31,0.511,0.31,0.863
		c0,0.322-0.107,0.595-0.32,0.817c-0.215,0.223-0.477,0.334-0.786,0.334c-0.324,0-0.597-0.111-0.818-0.334s-0.332-0.495-0.332-0.817
		s0.11-0.599,0.332-0.828C174.848,147.343,175.112,147.22,175.423,147.205z M176.131,154.57v20.119h-1.395V154.57H176.131z"/>
	<path fill="#3A3A3A" d="M190.756,154.11c2.935,0,5.406,1.128,7.412,3.384c1.74,1.965,2.61,4.358,2.61,7.182
		c0,3.146-1.136,5.748-3.407,7.804c-1.902,1.719-4.159,2.578-6.771,2.578c-1.593,0-3.127-0.414-4.602-1.243
		c-1.712-0.951-3.031-2.294-3.961-4.028c-0.87-1.596-1.306-3.33-1.306-5.202c0-3.191,1.144-5.824,3.43-7.896
		C185.991,155.016,188.189,154.156,190.756,154.11z M190.756,155.491c-2.522,0-4.654,1.021-6.395,3.062
		c-1.46,1.719-2.19,3.729-2.19,6.031c0,2.686,0.951,4.935,2.854,6.745c1.637,1.564,3.503,2.348,5.598,2.348
		c2.625,0,4.801-1.021,6.527-3.062c1.46-1.719,2.19-3.706,2.19-5.962c0-2.701-0.952-4.973-2.854-6.813
		C194.908,156.32,192.998,155.537,190.756,155.491z"/>
</g>
<g>
	<path fill="#3A3A3A" d="M76.568,191.963c0.976-1.584,2.365-2.376,4.168-2.376c1.436,0,2.624,0.527,3.564,1.58
		c0.813,0.92,1.22,2.002,1.22,3.246c0,1.485-0.552,2.705-1.655,3.659c-0.891,0.778-1.941,1.167-3.15,1.167
		c-1.195,0-2.245-0.386-3.15-1.156c-0.827-0.7-1.343-1.58-1.548-2.642c-0.078-0.417-0.117-1.035-0.117-1.855v-8.994h0.668V191.963z
		 M80.715,190.224c-1.195,0-2.213,0.452-3.055,1.357c-0.721,0.771-1.082,1.69-1.082,2.758c0,1.272,0.438,2.315,1.315,3.129
		c0.813,0.757,1.739,1.135,2.779,1.135c1.195,0,2.209-0.441,3.044-1.326c0.757-0.799,1.135-1.757,1.135-2.874
		c0-1.252-0.474-2.298-1.421-3.14C82.667,190.591,81.762,190.245,80.715,190.224z"/>
	<path fill="#3A3A3A" d="M94.938,189.799v9.928c0,0.813-0.035,1.427-0.106,1.841c-0.071,0.413-0.208,0.812-0.414,1.193
		c-0.304,0.565-0.753,1.015-1.347,1.347c-0.537,0.304-1.128,0.456-1.771,0.456c-1.294,0-2.302-0.537-3.023-1.612
		c-0.227-0.325-0.384-0.633-0.472-0.923s-0.147-0.675-0.175-1.156h0.668c0.014,0.418,0.057,0.748,0.127,0.992
		s0.205,0.504,0.403,0.779c0.608,0.855,1.432,1.283,2.472,1.283c0.862,0,1.57-0.3,2.121-0.901c0.325-0.347,0.548-0.755,0.668-1.225
		c0.12-0.471,0.18-1.162,0.18-2.074v-1.835c-0.502,0.53-0.951,0.896-1.347,1.099c-0.396,0.201-0.863,0.302-1.4,0.302
		c-0.99,0-1.817-0.347-2.482-1.039c-0.516-0.552-0.817-1.245-0.902-2.079c-0.014-0.17-0.021-0.591-0.021-1.263v-5.112h0.668v5.092
		c0,0.997,0.102,1.735,0.307,2.217c0.184,0.424,0.481,0.777,0.891,1.061c0.459,0.325,0.965,0.487,1.517,0.487
		c0.729,0,1.369-0.265,1.92-0.795c0.325-0.312,0.548-0.674,0.668-1.087c0.12-0.414,0.18-1.027,0.18-1.841v-5.134H94.938z"/>
	<path fill="#3A3A3A" d="M109.682,185.62c-0.693-0.282-1.197-0.465-1.512-0.546s-0.691-0.122-1.13-0.122
		c-1.074,0-1.93,0.293-2.566,0.88c-0.658,0.608-0.986,1.4-0.986,2.376c0,0.835,0.258,1.521,0.774,2.058
		c0.261,0.276,0.563,0.492,0.906,0.647s0.992,0.375,1.946,0.657c1.075,0.312,1.828,0.679,2.26,1.104
		c0.728,0.721,1.092,1.615,1.092,2.684c0,1.216-0.47,2.213-1.41,2.99c-0.771,0.644-1.687,0.966-2.747,0.966
		c-1.146,0-2.277-0.244-3.395-0.732v-0.721c1.322,0.537,2.411,0.806,3.268,0.806c1.124,0,2.032-0.367,2.726-1.103
		c0.572-0.615,0.859-1.348,0.859-2.196c0-0.904-0.318-1.65-0.955-2.237c-0.24-0.22-0.48-0.379-0.721-0.478
		c-0.241-0.099-0.923-0.325-2.048-0.679c-0.644-0.198-1.128-0.382-1.453-0.552s-0.607-0.385-0.849-0.646
		c-0.636-0.693-0.954-1.542-0.954-2.546c0-0.778,0.194-1.481,0.583-2.11c0.757-1.21,1.994-1.814,3.713-1.814
		c0.459,0,0.849,0.036,1.166,0.106c0.318,0.07,0.796,0.227,1.433,0.467V185.62z"/>
	<path fill="#3A3A3A" d="M113.192,186.405c0.162,0,0.293,0.051,0.393,0.153c0.099,0.103,0.148,0.235,0.148,0.398
		c0,0.148-0.052,0.273-0.154,0.376s-0.228,0.154-0.376,0.154c-0.156,0-0.287-0.052-0.393-0.154
		c-0.106-0.103-0.159-0.228-0.159-0.376s0.053-0.276,0.159-0.382C112.916,186.469,113.044,186.412,113.192,186.405z
		 M113.531,189.799v9.271h-0.668v-9.271H113.531z"/>
	<path fill="#3A3A3A" d="M117.223,184.592v14.478h-0.668v-14.478H117.223z M122.219,189.799l-4.169,4.265l4.604,5.006h-0.88
		l-4.18-4.529c-0.205-0.219-0.308-0.382-0.308-0.487c0-0.113,0.106-0.276,0.318-0.488l3.723-3.766H122.219z"/>
	<path fill="#3A3A3A" d="M132.306,196.863c-0.977,1.584-2.366,2.376-4.169,2.376c-1.436,0-2.623-0.527-3.563-1.581
		c-0.813-0.919-1.22-2.001-1.22-3.245c0-1.485,0.552-2.705,1.654-3.659c0.891-0.778,1.941-1.167,3.15-1.167
		c1.194,0,2.245,0.386,3.15,1.156c0.827,0.7,1.343,1.58,1.548,2.641c0.078,0.418,0.117,1.036,0.117,1.856v3.829h-0.668V196.863z
		 M128.2,190.224c-1.188,0-2.202,0.441-3.044,1.325c-0.757,0.8-1.135,1.758-1.135,2.875c0,1.259,0.474,2.305,1.421,3.14
		c0.785,0.692,1.69,1.039,2.716,1.039c1.202,0,2.22-0.452,3.055-1.357c0.721-0.778,1.082-1.697,1.082-2.758
		c0-1.272-0.438-2.315-1.315-3.129C130.201,190.63,129.275,190.252,128.2,190.224z"/>
	<path fill="#3A3A3A" d="M142.477,199.069h-0.668v-5.165c0-0.615-0.026-1.075-0.08-1.379c-0.053-0.305-0.164-0.608-0.334-0.912
		c-0.226-0.432-0.548-0.771-0.965-1.019s-0.877-0.371-1.379-0.371c-1.025,0-1.789,0.438-2.291,1.315
		c-0.177,0.311-0.299,0.636-0.365,0.976c-0.067,0.339-0.102,0.806-0.102,1.399v5.155h-0.668v-5.282c0-1.124,0.173-1.983,0.52-2.577
		c0.283-0.48,0.686-0.87,1.209-1.167c0.545-0.304,1.117-0.456,1.719-0.456c0.792,0,1.499,0.248,2.121,0.742
		c0.48,0.39,0.814,0.846,1.002,1.369c0.188,0.522,0.281,1.279,0.281,2.27V199.069z"/>
	<path fill="#3A3A3A" d="M153.54,191.963v-7.371h0.668v8.994c0,0.842-0.048,1.495-0.144,1.962c-0.095,0.467-0.273,0.923-0.535,1.368
		c-0.432,0.742-1.039,1.322-1.824,1.739c-0.722,0.39-1.492,0.584-2.313,0.584c-1.414,0-2.592-0.513-3.532-1.538
		c-0.849-0.919-1.272-2.016-1.272-3.288c0-1.449,0.526-2.651,1.58-3.606c0.898-0.813,1.966-1.22,3.203-1.22
		C151.175,189.587,152.564,190.379,153.54,191.963z M149.414,190.224c-1.217,0-2.245,0.463-3.087,1.39
		c-0.714,0.784-1.071,1.715-1.071,2.789c0,1.287,0.488,2.348,1.464,3.182c0.785,0.68,1.68,1.019,2.684,1.019
		c0.721,0,1.407-0.19,2.058-0.572c0.707-0.41,1.241-0.969,1.602-1.676c0.312-0.602,0.467-1.228,0.467-1.878
		c0-1.322-0.467-2.394-1.4-3.214C151.358,190.591,150.453,190.245,149.414,190.224z"/>
	<path fill="#3A3A3A" d="M165.08,196.863c-0.976,1.584-2.365,2.376-4.169,2.376c-1.436,0-2.623-0.527-3.563-1.581
		c-0.813-0.919-1.22-2.001-1.22-3.245c0-1.485,0.552-2.705,1.654-3.659c0.892-0.778,1.941-1.167,3.15-1.167
		c1.195,0,2.245,0.386,3.15,1.156c0.827,0.7,1.343,1.58,1.549,2.641c0.077,0.418,0.116,1.036,0.116,1.856v3.829h-0.668V196.863z
		 M160.976,190.224c-1.188,0-2.203,0.441-3.045,1.325c-0.757,0.8-1.135,1.758-1.135,2.875c0,1.259,0.474,2.305,1.422,3.14
		c0.784,0.692,1.689,1.039,2.715,1.039c1.202,0,2.221-0.452,3.055-1.357c0.722-0.778,1.082-1.697,1.082-2.758
		c0-1.272-0.438-2.315-1.315-3.129C162.977,190.63,162.05,190.252,160.976,190.224z"/>
	<path fill="#3A3A3A" d="M171.804,189.778v0.636c-0.962,0.028-1.639,0.281-2.031,0.759s-0.589,1.289-0.589,2.435v5.462h-0.668
		v-5.526C168.438,191.019,169.534,189.764,171.804,189.778z"/>
	<path fill="#3A3A3A" d="M186.282,195.537h-6.587l-1.135,3.532h-0.7l4.338-13.598c0.177-0.552,0.299-0.882,0.366-0.992
		c0.066-0.109,0.179-0.164,0.334-0.164c0.148,0,0.26,0.061,0.334,0.181s0.214,0.487,0.419,1.103l4.519,13.471h-0.711
		L186.282,195.537z M186.049,194.891l-3.161-9.44l-2.98,9.44H186.049z"/>
	<path fill="#3A3A3A" d="M190.673,184.592v14.478h-0.668v-14.478H190.673z"/>
	<path fill="#3A3A3A" d="M194.035,186.405c0.162,0,0.293,0.051,0.393,0.153c0.099,0.103,0.148,0.235,0.148,0.398
		c0,0.148-0.052,0.273-0.154,0.376s-0.228,0.154-0.376,0.154c-0.156,0-0.286-0.052-0.393-0.154s-0.159-0.228-0.159-0.376
		s0.053-0.276,0.159-0.382C193.76,186.469,193.887,186.412,194.035,186.405z M194.375,189.799v9.271h-0.669v-9.271H194.375z"/>
</g>
</svg>
