<?xml version="1.0" encoding="UTF-8"?>
<!DOCTYPE svg PUBLIC "-//W3C//DTD SVG 1.1//EN" "http://www.w3.org/Graphics/SVG/1.1/DTD/svg11.dtd">
<!-- Creator: CorelDRAW X6 -->
<svg xmlns="http://www.w3.org/2000/svg" xml:space="preserve" width="0.15in" height="0.15in" version="1.1" style="shape-rendering:geometricPrecision; text-rendering:geometricPrecision; image-rendering:optimizeQuality; fill-rule:evenodd; clip-rule:evenodd"
viewBox="0 0 150 150"
 xmlns:xlink="http://www.w3.org/1999/xlink"
 enable-background="new 0 0 299 252">
 <defs>
  <style type="text/css">
   <![CDATA[
    .str0 {stroke:#373435;stroke-width:6.94488}
    .fil0 {fill:none}
    .fil1 {fill:#373435}
   ]]>
  </style>
 </defs>
 <g id="Layer_x0020_1">
  <metadata id="CorelCorpID_0Corel-Layer"/>
  <circle class="fil0 str0" cx="75" cy="75" r="67"/>
 </g>
 <g id="Layer_x0020_1_0">
  <metadata id="CorelCorpID_1Corel-Layer"/>
 </g>
 <g id="Layer_x0020_1_1">
  <metadata id="CorelCorpID_2Corel-Layer"/>
  <g id="_499164768">
   <path class="fil1" d="M128 99c-4,0 -9,0 -13,0 -20,1 -40,1 -60,2 -3,0 -5,0 -7,-2 -2,-2 -3,-4 -2,-8 1,-3 3,-4 7,-4 5,0 10,0 15,-1 3,0 6,-2 9,-3 3,-2 3,-4 2,-7 -2,-3 -3,-5 -6,-8 3,-5 8,-10 12,-17 1,1 2,1 2,1 9,5 17,11 26,17 4,3 10,4 15,5 0,9 0,17 0,25l1 -2z"/>
   <path class="fil1" d="M47 99c-3,6 -10,8 -15,11 2,-5 1,-11 5,-17 16,-21 31,-43 47,-65 0,0 1,-1 1,-2 3,2 6,4 9,6 -3,4 -6,8 -9,12 -9,12 -17,24 -26,36 -1,2 -3,3 -4,3 -2,0 -3,0 -4,0 -6,2 -8,8 -4,13 0,0 1,1 1,1l0 1z"/>
   <path class="fil1" d="M73 43c-3,5 -8,10 -11,15 -8,10 -16,21 -23,31 -3,3 -6,4 -10,2 -3,-2 -3,-3 -1,-6 10,-13 18,-26 28,-40 4,-6 9,-9 17,-3l-1 1z"/>
  </g>
 </g>
</svg>
